<svg xmlns="http://www.w3.org/2000/svg" viewBox="47.26 39.31 94.52 101.17">
  <defs>
    <filter data-v-10aac690="" id="logo-shadow" filterUnits="objectBoundingBox" x="-0.5" y="-0.5" width="2" height="2">
      <feOffset data-v-10aac690="" in="SourceAlpha" dx="-10" dy="25" result="ALPHA1" id="feOffset1189"/>
      <feMorphology data-v-10aac690="" in="ALPHA1" operator="dilate" radius="15" result="ALPHA" id="feMorphology1191"/>
      <feGaussianBlur data-v-10aac690="" in="ALPHA" stdDeviation="20" result="DROP" id="feGaussianBlur1193"/>
      <feFlood data-v-10aac690="" in="DROP" flood-color="#333" result="SOLID" id="feFlood1195"/>
      <feComposite data-v-10aac690="" in="DROP" in2="SOLID" operator="in" result="SHADOW1" id="feComposite1197"/>
      <feComponentTransfer data-v-10aac690="" in="SHADOW1" result="SHADOW" id="feComponentTransfer1201">
        <feFuncA data-v-10aac690="" type="linear" slope="0.55" id="feFuncA1199"/>
      </feComponentTransfer>
      <feMerge data-v-10aac690="" id="feMerge1207">
        <feMergeNode data-v-10aac690="" in="SHADOW" id="feMergeNode1203"/>
        <feMergeNode data-v-10aac690="" in="SourceGraphic" id="feMergeNode1205"/>
      </feMerge>
    </filter>
  </defs>
  <g>
    <g data-v-10aac690="" id="g1226" style="clip-rule:evenodd;fill-rule:evenodd;shape-rendering:geometricPrecision" transform="matrix(0.118748, 0, 0, 0.118748, 23.274704, 16.149796)">
      <g data-v-10aac690="" filter="url(#logo-shadow)" class="logo-dark-v" id="g1214">
        <path data-v-10aac690="" fill="#34495e" d="M 747,311 602,562 458,311 H 227 L 602,962 978,311 Z" id="path1212" data-darkreader-inline-fill="" style="--darkreader-inline-fill: #2a3a4b;"/>
      </g>
      <g data-v-10aac690="" filter="url(#logo-shadow)" class="logo-purple-v" id="g1220">
        <path data-v-10aac690="" fill="#563d7c" fill-rule="nonzero" d="M 219,195 H 981 L 599,857 Z" id="path1216" style="stroke-width: 1.00212; stroke-miterlimit: 4; stroke-dasharray: none; --darkreader-inline-fill: #453163;" data-darkreader-inline-fill=""/>
        <path data-v-10aac690="" fill="#ffffff" d="m 501,282 h 132 c 25,0 44,5 59,16 15,12 22,28 22,51 0,14 -3,26 -10,35 -7,10 -16,18 -29,23 v 1 c 17,3 30,11 38,24 9,12 13,27 13,46 0,11 -2,21 -6,30 -3,9 -9,17 -17,24 -9,6 -19,12 -32,16 -12,4 -28,6 -45,6 H 501 Z m 48,114 h 77 c 12,0 21,-4 29,-10 8,-7 11,-16 11,-28 0,-14 -3,-24 -10,-29 -7,-6 -17,-9 -30,-9 h -77 z m 0,119 h 84 c 14,0 26,-4 33,-11 8,-8 13,-19 13,-32 0,-14 -4,-24 -13,-31 -8,-8 -19,-11 -33,-11 h -84 z" class="logo-white-b" id="path1218" data-darkreader-inline-fill="" style="--darkreader-inline-fill: #e8e6e3;"/>
      </g>
      <path data-v-10aac690="" fill="#41b883" d="M 839,357 600,771 361,357 H 202 l 398,690 398,-690 z" id="path1222" style="filter: url(&quot;#logo-shadow&quot;); --darkreader-inline-fill: #349369;" data-darkreader-inline-fill=""/>
    </g>
  </g>
</svg>