<svg xmlns="http://www.w3.org/2000/svg" aria-label="Docker" role="img" viewBox="66.53 115 405.47 282"><rect width="512" height="512" fill="none"/>
<path stroke="#066da5" stroke-width="38" d="M296 226h42m-92 0h42m-91 0h42m-91 0h41m-91 0h42m8-46h41m8 0h42m7 0h42m-42-46h42" data-darkreader-inline-stroke="" style="--darkreader-inline-stroke: #5ac1f9;"/>
<path fill="#066da5" d="m472 228s-18-17-55-11c-4-29-35-46-35-46s-29 35-8 74c-6 3-16 7-31 7H68c-5 19-5 145 133 145 99 0 173-46 208-130 52 4 63-39 63-39" data-darkreader-inline-fill="" style="--darkreader-inline-fill: #055784;"/></svg>