<?xml version="1.0" encoding="UTF-8" standalone="no" ?>
<!DOCTYPE svg PUBLIC "-//W3C//DTD SVG 1.1//EN" "http://www.w3.org/Graphics/SVG/1.1/DTD/svg11.dtd">
<svg xmlns="http://www.w3.org/2000/svg" xmlns:xlink="http://www.w3.org/1999/xlink" version="1.1" width="1080" height="1080" viewBox="0 0 1080 1080" xml:space="preserve">
<desc>Created with Fabric.js 5.2.4</desc>
<defs>
</defs>
<rect x="0" y="0" width="100%" height="100%" fill="transparent"></rect>
<g transform="matrix(1 0 0 1 540 540)" id="9e1205bd-ccae-487b-a571-a0005220fadf"  >
<rect style="stroke: none; stroke-width: 1; stroke-dasharray: none; stroke-linecap: butt; stroke-dashoffset: 0; stroke-linejoin: miter; stroke-miterlimit: 4; fill: rgb(255,255,255); fill-rule: nonzero; opacity: 1; visibility: hidden;" vector-effect="non-scaling-stroke"  x="-540" y="-540" rx="0" ry="0" width="1080" height="1080" />
</g>
<g transform="matrix(1 0 0 1 540 540)" id="348b14f1-78f2-4af7-ae48-38cf74eaf8a4"  >
</g>
<g transform="matrix(14.31 0 0 14.31 540 540)" id="e54c1f9e-a0ac-45b6-b922-6ac389a7a3c8"  >
<circle style="stroke: rgb(0,0,0); stroke-width: 0; stroke-dasharray: none; stroke-linecap: butt; stroke-dashoffset: 0; stroke-linejoin: miter; stroke-miterlimit: 4; fill: rgb(255,255,255); fill-rule: nonzero; opacity: 1;" vector-effect="non-scaling-stroke"  cx="0" cy="0" r="35" />
</g>
<g transform="matrix(2.22 0 0 2.22 540 540)" id="94e4d1c7-dffd-4124-ae1e-c3d7eb075f1d"  >
<path style="stroke: rgb(0,0,0); stroke-width: 0; stroke-dasharray: none; stroke-linecap: butt; stroke-dashoffset: 0; stroke-linejoin: miter; stroke-miterlimit: 4; fill: rgb(0,0,0); fill-rule: nonzero; opacity: 1;" vector-effect="non-scaling-stroke"  transform=" translate(-128, -164.41)" d="M 76.501 203.351 C 66.751 195.681 56.348000000000006 188.331 49.241 177.974 C 34.28 159.70999999999998 22.764 138.569 14.890999999999998 116.34899999999999 C 10.130999999999998 101.89899999999999 8.500999999999998 86.40799999999999 2.360999999999999 72.51899999999999 C -4.053000000000001 62.42799999999999 3.465999999999999 51.40499999999999 14.517999999999999 48.19899999999999 C 19.435 47.25099999999999 28.086 42.608999999999995 17.643 45.93099999999999 C 8.279 52.79699999999999 7.377000000000001 39.69099999999999 16.977 38.86099999999999 C 23.529 37.99199999999999 25.941000000000003 32.630999999999986 23.698 27.804999999999993 C 16.662 23.214999999999993 40.753 18.178999999999995 28.630000000000003 11.331999999999994 C 16.010000000000005 -2.2880000000000056 46.290000000000006 -4.910000000000007 38.818000000000005 10.560999999999993 C 37.032000000000004 22.455999999999992 59.98400000000001 8.375999999999992 54.654 22.114999999999995 C 60.069 28.713999999999995 74.926 23.619999999999994 74.553 32.87199999999999 C 82.439 33.413999999999994 85.146 40.044999999999995 92.541 40.55499999999999 C 100.21799999999999 44.020999999999994 114.121 46.74699999999999 116.729 55.391999999999996 C 109.119 61.41499999999999 91.502 42.949 90.651 59.623999999999995 C 92.953 84.262 92.366 109.64099999999999 101.377 133.10199999999998 C 105.639 147.30599999999998 115.97699999999999 158.48699999999997 125.30799999999999 169.55199999999996 C 134.24099999999999 180.38599999999997 146.338 188.01799999999997 158.671 194.43899999999996 C 169.486 199.53899999999996 181.146 202.91899999999995 192.93599999999998 205.04499999999996 C 197.71599999999998 201.38899999999995 206.15699999999998 187.79499999999996 213.611 193.52299999999997 C 213.971 199.97199999999998 198.815 206.99399999999997 212.89999999999998 206.28099999999998 C 221.17799999999997 203.783 226.91299999999998 212.67499999999998 233.72599999999997 204.652 C 240.00399999999996 212.088 259.816 199.90499999999997 255.35099999999997 215.10199999999998 C 249.30899999999997 218.99999999999997 240.50099999999998 216.64499999999998 234.45299999999997 222.00799999999998 C 224.48099999999997 217.02499999999998 216.54099999999997 226.46099999999998 205.49699999999999 225.271 C 193.237 227.46699999999998 180.759 228.351 168.32999999999998 228.369 C 147.93399999999997 226.76 127.10799999999998 226.081 107.70599999999999 218.97899999999998 C 96.773 215.803 86.10799999999999 209.577 76.50099999999999 203.351 z M 93.72500000000001 210.819 C 104.397 215.429 114.834 220.29399999999998 126.53200000000001 221.765 C 145.09 224.34199999999998 164.255 228.31699999999998 182.87800000000001 224.695 C 174.45000000000002 220.89 165.733 226.173 157.33700000000002 221.975 C 147.26700000000002 224.13899999999998 136.459 221.41899999999998 126.21700000000001 220.078 C 114.57700000000001 214.894 102.01100000000001 211.33 91.11000000000001 204.59300000000002 C 77.48200000000001 199.61800000000002 98.15300000000002 210.97600000000003 101.83400000000002 211.89900000000003 C 110.34800000000001 216.72900000000004 92.46900000000002 209.41900000000004 89.94400000000002 207.41200000000003 C 82.81200000000001 203.41000000000003 81.90400000000002 204.24700000000004 89.24000000000002 208.30800000000002 C 90.71700000000003 209.17200000000003 92.17600000000002 210.08100000000002 93.72500000000002 210.81900000000002 z M 73.415 196.46599999999998 C 83.76 200.29799999999997 73.369 189.194 68.635 189.83599999999998 C 66.53500000000001 186.19299999999998 60.61200000000001 183.891 64.79 181.93599999999998 C 57.27700000000001 184.546 56.91700000000001 172.016 53.38700000000001 173.80899999999997 C 45.43500000000001 171.29799999999997 50.293000000000006 162.40399999999997 40.818000000000005 156.93899999999996 C 39.95400000000001 151.18299999999996 31.408000000000005 146.19399999999996 28.688000000000002 137.51599999999996 C 27.485000000000003 133.06999999999996 19.03 120.31299999999996 24.222 132.18599999999995 C 28.642000000000003 143.61599999999996 36.417 153.41299999999995 42.891000000000005 163.18899999999996 C 47.913000000000004 172.49899999999997 53.851000000000006 182.23699999999997 62.99900000000001 188.04399999999995 C 66.08600000000001 191.00599999999994 69.06 195.53699999999995 73.41400000000002 196.46599999999995 z M 43.62400000000001 163.75099999999998 C 43.982000000000006 162.188 45.51400000000001 167.13099999999997 43.62400000000001 163.75099999999998 z M 85.80700000000002 201.05599999999998 C 88.09500000000001 200.02999999999997 82.51100000000001 199.76199999999997 85.80700000000002 201.05599999999998 z M 91.41700000000002 203.10399999999998 C 90.83600000000001 200.278 88.85400000000001 204.68599999999998 91.41700000000002 203.10399999999998 z M 98.44700000000002 206.034 C 101.78800000000001 202.84699999999998 93.28700000000002 204.024 98.44700000000002 206.034 z M 110.49200000000002 212.74699999999999 C 112.52500000000002 209.74599999999998 103.98500000000001 211.617 110.49200000000002 212.74699999999999 z M 87.36400000000002 196.624 C 92.55400000000002 193.262 80.64800000000002 196.577 87.36400000000002 196.624 z M 92.63400000000001 199.252 C 92.48300000000002 197.479 90.75700000000002 200.049 92.63400000000001 199.252 z M 118.97900000000001 215.697 C 123.21600000000001 218.372 143.717 221.556 130.881 216.79500000000002 C 128.728 217.247 107.078 210.668 118.979 215.697 z M 77.156 183.12 C 76.744 181.34300000000002 70.57600000000001 181.15200000000002 77.156 183.12 z M 89.41600000000001 190.275 C 92.61300000000001 188.04500000000002 82.79200000000002 188.555 89.41600000000001 190.275 z M 99.73400000000001 196.598 C 104.31800000000001 194.872 92.30700000000002 194.865 99.73400000000001 196.598 z M 72.16 177.686 C 77.13 181.497 92.21 178.17600000000002 79.771 175.411 C 74.115 172.39600000000002 61.364000000000004 170.331 70.056 177.229 L 72.16 177.686 z M 106.726 198.781 C 108.798 195.256 98.041 196.76600000000002 106.726 198.781 z M 96.223 190.436 C 108.373 193.87 86.003 182.746 93.223 189.168 L 94.826 189.894 L 96.223 190.436 z M 117.281 202.606 C 128.78900000000002 202.716 106.88300000000001 201.018 117.281 202.606 z M 67.73400000000001 171.028 C 67.28200000000001 168.884 64.89600000000002 171.206 67.73400000000001 171.028 z M 136.747 213.52599999999998 C 137.054 209.65599999999998 132.99300000000002 216.40999999999997 136.747 213.52599999999998 z M 87.37700000000001 183.05399999999997 C 86.677 181.01399999999998 83.781 182.96899999999997 87.37700000000001 183.05399999999997 z M 68.82500000000002 169.68199999999996 C 75.43100000000001 169.28399999999996 59.77500000000002 166.77199999999996 68.82500000000002 169.68199999999996 z M 46.847000000000016 155.47799999999995 C 46.024000000000015 152.30799999999996 39.661000000000016 149.78399999999996 46.847000000000016 155.47799999999995 z M 104.54200000000002 192.09199999999996 C 103.33200000000002 190.71099999999996 103.97200000000002 192.39199999999997 104.54200000000002 192.09199999999996 z M 140.447 214.12899999999996 C 140.337 212.01599999999996 138.492 214.92499999999995 140.447 214.12899999999996 z M 101.364 188.80899999999997 C 102.012 186.08899999999997 95.72800000000001 187.98399999999998 101.364 188.80899999999997 z M 74.61200000000001 171.85299999999998 C 79.53000000000002 171.32899999999998 66.73200000000001 168.53099999999998 74.61200000000001 171.85299999999998 z M 119.864 199.97199999999998 C 127.527 196.93699999999998 112.396 198.49299999999997 119.864 199.97199999999998 z M 96.32900000000001 183.99699999999999 C 105.156 185.13299999999998 85.82100000000001 177.987 94.38700000000001 183.355 L 96.32900000000001 183.99699999999999 z M 127.00900000000001 202.861 C 135.25600000000003 197.938 132.536 214.403 140.99800000000002 204.254 C 149.341 198.16 133.79100000000003 211.78699999999998 144.07100000000003 205.34 C 151.51200000000003 200.363 162.497 207.70000000000002 169.43600000000004 210.087 C 174.42400000000004 209.845 179.27700000000004 214.403 184.39600000000004 211.629 C 194.24400000000006 208.974 165.13300000000004 207.694 172.76300000000003 202.99099999999999 C 163.75300000000004 205.61499999999998 157.09700000000004 199.86599999999999 152.66300000000004 194.09199999999998 C 142.55300000000005 191.75699999999998 130.86800000000005 186.59199999999998 125.82000000000004 177.64 C 123.76000000000003 174.28599999999997 128.79000000000005 178.118 124.04200000000003 172.625 C 117.95400000000004 167.21 114.91400000000003 161.056 110.82600000000004 154.472 C 105.94100000000003 151.869 105.36600000000004 144.199 104.87500000000004 154.21800000000002 C 104.91500000000005 147.894 98.97700000000005 143.63700000000003 97.52500000000005 145.40300000000002 C 97.49900000000005 139.31400000000002 103.88200000000005 142.36800000000002 99.41500000000005 137.86300000000003 C 98.45500000000006 131.55200000000002 95.28900000000004 124.97500000000002 94.34000000000005 117.84700000000004 C 92.86400000000005 114.41400000000004 94.13000000000005 107.05800000000004 89.29300000000005 114.83200000000004 C 87.53300000000004 123.05200000000004 88.71100000000006 104.73600000000003 91.45100000000005 110.77200000000003 C 95.04700000000005 104.61200000000004 90.15500000000004 105.33700000000003 89.95900000000005 106.18800000000003 C 92.30100000000004 100.99000000000004 91.44400000000005 93.61300000000003 89.34500000000004 96.42500000000003 C 90.59400000000004 90.91200000000002 91.32000000000004 76.14100000000002 87.48200000000004 78.76300000000003 C 89.80900000000004 72.99600000000004 91.89600000000004 52.38300000000004 81.78500000000004 60.24500000000003 C 77.69200000000004 60.30300000000003 70.59800000000004 61.73000000000003 67.25000000000004 63.397000000000034 C 77.75800000000004 69.19100000000003 66.19000000000004 65.48900000000003 61.90700000000004 64.56700000000004 C 61.35100000000004 69.92900000000003 57.11400000000004 67.61400000000003 51.817000000000036 67.66600000000004 C 60.27900000000004 68.71200000000005 47.69700000000004 76.31600000000005 42.85300000000004 73.36200000000004 C 36.549000000000035 76.37000000000003 48.287000000000035 83.89000000000004 42.97700000000004 86.21700000000004 C 43.63200000000004 89.71600000000004 33.32500000000004 84.95000000000005 34.13000000000004 93.04500000000004 C 28.015000000000036 90.46700000000004 33.293000000000035 102.64400000000005 36.35300000000004 98.52500000000005 C 46.75700000000003 101.34300000000005 43.677000000000035 107.75800000000005 43.93800000000004 113.85800000000005 C 42.244000000000035 117.40800000000004 35.56800000000004 105.50800000000005 42.45300000000004 106.05800000000005 C 37.01900000000004 97.23500000000004 36.445000000000036 102.86600000000004 31.932000000000038 106.96600000000005 C 30.88600000000004 107.26100000000005 43.44100000000004 112.79800000000004 35.56200000000004 115.53200000000005 C 42.49300000000004 116.60500000000005 42.69600000000004 122.67300000000006 44.10900000000004 126.51200000000006 C 48.274000000000036 130.85200000000006 47.41600000000004 121.71700000000006 52.40700000000004 126.93700000000005 C 49.24700000000004 122.28700000000005 35.692000000000036 113.83700000000006 46.60700000000004 116.54700000000005 C 46.54700000000004 111.87100000000005 44.63100000000004 108.09700000000005 47.97900000000004 108.18800000000006 C 51.295000000000044 102.19200000000006 44.50700000000004 122.98000000000006 51.975000000000044 115.35600000000007 C 54.04000000000004 114.45400000000006 54.55800000000004 109.35300000000007 58.27200000000004 115.84000000000006 C 63.66600000000004 121.15000000000006 60.22100000000004 124.99300000000007 52.60900000000004 120.12900000000006 C 53.96900000000004 124.75200000000007 62.790000000000035 126.39900000000006 61.12900000000003 133.62600000000006 C 62.887000000000036 139.98200000000006 65.34700000000004 137.64000000000007 67.49100000000003 137.27400000000006 C 69.17100000000003 143.44700000000006 70.12800000000003 138.90900000000005 70.20600000000003 135.96600000000007 C 77.90200000000003 137.61600000000007 76.09700000000004 142.16600000000005 78.50900000000003 145.34400000000005 C 83.81200000000003 147.73600000000005 70.91800000000003 129.12000000000006 80.02100000000003 139.74600000000004 C 89.59900000000003 148.39700000000005 83.61700000000003 152.00600000000003 75.01900000000003 150.62100000000004 C 80.45900000000003 150.18100000000004 82.21000000000004 157.97800000000004 89.01900000000003 157.70300000000003 C 95.22400000000003 160.65800000000004 99.42900000000003 171.99700000000004 88.73100000000004 167.27500000000003 C 85.02300000000004 163.92700000000002 71.88500000000003 159.80100000000004 82.61700000000003 166.16400000000004 C 92.51700000000004 170.75400000000005 100.39000000000003 173.49400000000006 109.94300000000004 179.25600000000006 C 116.77700000000004 184.13400000000007 119.73100000000004 189.72300000000007 122.32100000000004 190.83000000000007 C 116.57400000000004 193.57500000000007 105.00700000000003 188.63900000000007 113.59800000000004 187.12900000000008 C 108.23600000000005 186.15400000000008 102.20800000000004 183.4410000000001 107.34000000000005 190.11700000000008 C 111.70800000000004 193.76600000000008 122.80500000000005 193.37900000000008 124.80000000000004 193.79100000000008 C 123.11300000000004 197.50600000000009 120.21700000000004 197.80100000000007 124.86500000000004 198.08800000000008 C 119.67900000000003 200.85400000000007 126.53300000000004 201.2860000000001 127.01000000000003 202.86100000000008 z M 116.40300000000002 172.906 C 113.24500000000002 169.604 112.42800000000003 163.425 115.84100000000002 168.798 C 117.59400000000002 169.505 121.44600000000003 178.903 116.40300000000002 172.906 z M 150.95000000000002 194.851 C 152.918 194.721 151.008 196.347 150.95000000000002 194.851 z M 111.42200000000003 164.811 C 111.29600000000002 159.821 112.55800000000002 168.661 111.42200000000003 164.811 z M 107.98800000000003 160.19400000000002 C 104.01300000000003 152.52400000000003 112.99000000000002 162.365 107.98800000000003 160.19400000000002 z M 66.37300000000002 131.47500000000002 C 68.70800000000001 130.85200000000003 67.52400000000002 135.46200000000002 66.37300000000002 131.47500000000002 z M 99.49400000000003 149.42400000000004 C 100.92600000000003 144.04200000000003 101.17500000000003 153.93700000000004 99.49400000000003 149.42400000000004 z M 76.09700000000004 133.15400000000002 C 74.45000000000003 130.18600000000004 79.54400000000004 135.94100000000003 76.09700000000004 133.15400000000002 z M 96.17200000000004 139.58900000000003 C 92.41200000000003 131.16700000000003 98.84000000000005 134.985 97.00900000000004 140.96900000000002 L 96.17200000000004 139.58900000000003 z M 61.54800000000004 116.49900000000002 C 59.86800000000004 113.73400000000002 57.08800000000004 105.62500000000003 57.98400000000004 103.14800000000002 C 58.78800000000004 107.18200000000003 66.55700000000004 120.50200000000002 61.78900000000004 108.66700000000003 C 56.52600000000004 98.74700000000003 68.08700000000003 111.88300000000002 69.27700000000004 114.36200000000002 C 69.83300000000004 116.82100000000003 66.02700000000004 113.68900000000002 68.60300000000004 119.46200000000002 C 63.90200000000004 112.89000000000001 65.83000000000004 123.09200000000001 61.54800000000004 116.49900000000002 z M 50.85000000000004 109.12400000000002 C 51.28800000000004 102.69600000000003 53.296000000000035 113.53100000000002 50.85000000000004 109.12400000000002 z M 55.66300000000004 110.78400000000002 C 57.95800000000004 105.93400000000003 59.55300000000004 117.54600000000002 55.66300000000004 110.78400000000002 z M 44.082000000000036 101.82700000000003 C 40.09900000000004 97.86300000000003 37.21500000000004 94.21500000000003 44.271000000000036 99.36700000000003 C 46.985000000000035 99.47200000000004 38.23000000000003 91.07000000000004 44.92600000000004 96.69900000000003 C 51.96100000000004 97.98200000000003 48.397000000000034 108.24200000000002 44.082000000000036 101.82700000000003 z M 50.16300000000004 101.67000000000003 C 52.47900000000004 99.37500000000003 51.393000000000036 103.92600000000003 50.16300000000004 101.67000000000003 z M 53.91000000000004 102.86600000000003 C 50.39800000000004 96.29400000000003 58.16700000000004 105.62600000000003 53.91000000000004 102.86600000000003 z M 46.46900000000004 95.75900000000003 C 34.88900000000004 85.44500000000002 61.018000000000036 101.14600000000003 48.35900000000004 97.66700000000003 L 46.46900000000004 95.75900000000003 z M 79.65400000000004 115.03500000000003 C 74.63900000000004 112.03300000000003 78.32000000000004 93.88200000000003 80.03400000000003 106.29300000000002 C 84.90600000000003 104.71600000000002 79.76400000000004 112.70800000000003 83.39400000000003 112.62900000000002 C 82.82600000000004 117.66900000000003 81.19800000000004 119.48300000000002 79.65400000000004 115.03500000000003 z M 91.92800000000004 122.29300000000002 C 92.41800000000003 116.82100000000003 92.96100000000004 126.03500000000003 91.92800000000004 122.29300000000002 z M 89.79700000000004 120.18100000000003 C 90.34600000000005 117.84700000000002 89.84900000000005 122.93400000000003 89.79700000000004 120.18100000000003 z M 48.73700000000004 92.37100000000002 C 41.29700000000004 82.10400000000003 70.36200000000004 102.75400000000002 53.50500000000004 94.97400000000002 C 51.74500000000004 94.51000000000002 49.62100000000004 94.34600000000002 48.73700000000004 92.37100000000002 z M 72.37600000000003 104.90100000000002 C 71.67100000000003 96.25600000000003 73.94600000000003 106.33100000000003 72.37600000000003 104.90100000000002 z M 90.31900000000003 116.41400000000003 C 91.70500000000003 111.49100000000003 90.42500000000003 119.67200000000003 90.31900000000003 116.41400000000003 z M 49.88200000000003 88.45400000000004 C 54.30300000000003 87.50600000000004 68.20400000000004 96.21600000000004 55.44000000000003 90.93900000000004 C 54.022000000000034 89.36900000000004 50.994000000000035 90.08200000000004 49.88200000000003 88.45300000000003 z M 87.85300000000004 107.37800000000004 C 88.32600000000004 98.53800000000004 90.49700000000004 102.10100000000004 87.87300000000003 108.64700000000005 L 87.85300000000004 107.37700000000005 z M 53.171 85.375 C 54.975 82.732 48.382999999999996 73.428 54.118 82.039 C 56.598 84.007 61.291000000000004 85.33500000000001 57.146 86.165 C 63.665 91.914 55.558 87.72200000000001 53.171 85.375 z M 85.976 104.619 C 87.22 94.549 87.076 110.517 85.976 104.619 z M 49.404 76.076 C 50.784000000000006 75.48599999999999 50.136 77.91199999999999 49.404 76.076 z M 57.964000000000006 81.16999999999999 C 60.166000000000004 76.54599999999999 62.02400000000001 86.32199999999999 57.964000000000006 81.16999999999999 z M 82.099 94.594 C 82.07900000000001 92.82199999999999 82.556 97.17699999999999 82.099 94.594 z M 80.699 91.502 C 77.351 83.23599999999999 83.819 95.87599999999999 80.699 91.502 z M 78.645 86.08 C 78.085 82.666 80.55499999999999 90.37 78.645 86.08 z M 81.993 80.64 C 79.692 76.591 84.898 62.788 85.47999999999999 71.348 C 83.05299999999998 78.018 84.77999999999999 81.746 86.466 72.8 C 89.59299999999999 65.764 85.79299999999999 86.696 81.993 80.64 z M 85.43299999999999 60.114000000000004 C 86.43499999999999 58.88400000000001 85.65599999999999 61.597 85.43299999999999 60.114000000000004 z M 79.687 173.324 C 78.326 172.13400000000001 79.862 174.077 79.687 173.324 z M 91.52199999999999 179.30800000000002 C 98.106 181.002 98.07399999999998 178.28700000000003 92.12199999999999 177.47600000000003 C 88.92499999999998 174.50200000000004 78.82199999999999 171.34300000000002 87.86599999999999 177.11 C 88.46199999999999 178.62800000000001 90.35199999999999 178.58800000000002 91.52199999999999 179.30800000000002 z M 68.15199999999999 163.78300000000002 C 71.77399999999999 166.49200000000002 81.81099999999999 171.447 73.317 164.818 C 76.181 161.488 67.83699999999999 159.717 70.604 157.488 C 63.561 153.177 65.044 153.563 69.983 153.701 C 61.521 149.914 71.205 150.202 70.748 148.261 C 67.485 147.619 54.537000000000006 142.505 62.155 148.679 C 54.413000000000004 144.735 60.31 150.15 57.97 149.581 C 50.05 147.423 65.02 155.611 56.714 153.577 C 61.253 157.173 68.93599999999999 162.797 58.629999999999995 157.382 C 57.276999999999994 159.33700000000002 66.00699999999999 162.3 68.151 163.78300000000002 z M 80.52899999999998 170.89800000000002 C 95.57599999999998 175.74400000000003 73.14599999999999 164.967 80.52899999999998 170.89800000000002 z M 143.89299999999997 209.28200000000004 C 144.08899999999997 206.29400000000004 141.83899999999997 211.83200000000005 143.89299999999997 209.28200000000004 z M 150.40599999999998 212.02200000000005 C 153.878 208.66200000000003 150.54999999999998 217.38400000000004 156.15999999999997 211.19900000000004 C 156.21799999999996 206.77100000000004 155.98999999999998 204.15700000000004 149.71299999999997 209.53700000000003 C 147.97899999999996 210.49900000000002 147.20899999999997 214.57200000000003 150.40599999999998 212.02300000000002 z M 47.024 147.098 C 45.957 142.906 39.549 142.924 47.024 147.098 z M 53.974000000000004 151.65400000000002 C 51.391000000000005 147.372 44.760000000000005 147.77700000000002 53.974000000000004 151.65400000000002 z M 93.542 175.51500000000001 C 97.408 178.949 111.283 178.03300000000002 98.232 175.941 C 96.30199999999999 173.083 85.964 173.77 93.542 175.51500000000001 z M 147.927 209.108 C 153.87099999999998 204.118 142.167 211.33100000000002 147.927 209.108 z M 160.293 217.601 C 160.33100000000002 215.999 157.73000000000002 218.301 160.293 217.601 z M 160.31300000000002 215.358 C 166.89700000000002 208.388 153.937 215.77 160.31300000000002 215.358 z M 29.917 132.776 C 24.307000000000002 124.772 26.432000000000002 121.17500000000001 21.018 114.63600000000001 C 19.990000000000002 109.63400000000001 11.733 98.29500000000002 16.748 110.30700000000002 C 21.338 117.33700000000002 22.698 128.217 29.918 132.776 z M 158.246 213.14100000000002 C 170.364 205.31300000000002 153.27700000000002 209.734 158.246 213.14100000000002 z M 167.493 216.76300000000003 C 173.561 211.55700000000004 163.654 215.67700000000002 167.493 216.76300000000003 z M 44.962999999999994 138.24800000000005 C 46.696999999999996 135.66500000000005 40.477999999999994 137.91500000000005 44.962999999999994 138.24800000000005 z M 165.563 214.29100000000005 C 171.435 210.50600000000006 164.20999999999998 211.08700000000005 164.498 214.63700000000006 L 165.563 214.29100000000005 z M 85.865 164.05800000000005 C 85.663 161.49500000000006 82.75999999999999 164.27400000000006 85.865 164.05800000000005 z M 90.789 166.89000000000004 C 89.22 163.72500000000005 88.383 167.38700000000006 90.789 166.89000000000004 z M 174.986 216.84900000000005 C 182.512 211.42000000000004 170.429 215.80800000000005 173.41 217.88200000000003 L 174.986 216.84900000000005 z M 172.10299999999998 215.45600000000005 C 178.236 210.32200000000006 165.635 217.73100000000005 172.10299999999998 215.45600000000005 z M 186.82699999999997 225.25700000000003 C 190.94199999999998 222.50400000000002 181.82599999999996 224.36800000000002 186.82699999999997 225.25700000000003 z M 48.736999999999966 136.38500000000005 C 54.24899999999997 137.62000000000006 70.77899999999997 149.96600000000004 61.029999999999966 137.24200000000005 C 56.03499999999997 135.76400000000004 59.029999999999966 123.55500000000005 53.935999999999964 125.71300000000005 C 57.355999999999966 131.42800000000005 56.74599999999997 133.85300000000007 49.56599999999997 130.25800000000004 C 40.54999999999997 125.85000000000004 44.49899999999997 132.43600000000004 46.26599999999997 134.25400000000005 C 43.85799999999997 134.80300000000005 49.44299999999997 136.34000000000006 48.73599999999997 136.38400000000004 z M 23.606999999999967 116.54000000000005 C 24.593999999999966 112.45200000000006 14.510999999999967 94.07100000000005 18.846999999999966 107.32600000000005 C 20.408999999999967 110.10500000000005 20.246999999999964 115.36800000000005 23.606999999999964 116.54000000000005 z M 69.73299999999996 144.97700000000006 C 66.88899999999997 142.60400000000007 69.59599999999996 144.63700000000006 69.73299999999996 144.97700000000006 z M 76.72299999999996 146.60700000000006 C 76.72299999999996 142.27700000000004 68.99499999999996 144.84700000000007 76.72299999999996 146.60700000000006 z M 137.34099999999995 184.81400000000005 C 136.18399999999994 181.85700000000006 132.77099999999996 184.74800000000005 137.34099999999995 184.81400000000005 z M 140.25099999999995 186.93800000000005 C 139.81799999999996 185.28400000000005 138.56899999999996 187.25900000000004 140.25099999999995 186.93800000000005 z M 164.27499999999995 202.07600000000005 C 166.58399999999995 200.37000000000006 161.39099999999996 201.85500000000005 164.27499999999995 202.07600000000005 z M 36.156 119.744 C 42.766 117.186 29.073 117.919 36.156 119.744 z M 132.004 180.124 C 131.927 175.84799999999998 127.78699999999999 181.191 132.004 180.124 z M 33.54599999999999 113.655 C 37.78999999999999 112.225 29.615999999999993 112.715 33.54599999999999 113.655 z M 45.86599999999999 119.625 C 45.79299999999999 118.22 44.56499999999999 120.162 45.86599999999999 119.625 z M 196.166 211.793 C 201.626 210.68800000000002 214.07 214.573 216.077 210.34900000000002 C 209.447 210.18500000000003 193.145 205.66600000000003 192.373 211.42000000000002 L 193.825 211.65 L 196.167 211.793 z M 49.78200000000001 120.613 C 49.88200000000001 116.277 46.40200000000001 120.45 49.78200000000001 120.613 z M 17.39 98.138 C 15.919 89.878 11.792000000000002 96.888 17.39 98.138 z M 25.112000000000002 100.08 C 25.211000000000002 97.425 18.042 97.693 25.112000000000002 100.08 z M 29.526000000000003 102.251 C 28.251000000000005 101.217 28.532000000000004 103.551 29.526000000000003 102.251 z M 57.31 120.07 C 58.619 118.866 54.211 119.181 57.31 120.07 z M 26.590000000000003 97.35999999999999 C 25.839000000000002 91.12199999999999 17.638000000000005 96.42499999999998 26.590000000000003 97.35999999999999 z M 10.745 87.08 C 10.521999999999998 84.203 9.200999999999999 88.16499999999999 10.745 87.08 z M 13.104999999999999 85.303 C 12.719999999999999 81.88799999999999 11.078 85.733 13.104999999999999 85.303 z M 26.12 93.07 C 31.626 90.91199999999999 16.094 88.597 24.995 92.66499999999999 L 26.12 93.07 z M 200.346 200.69 C 203.87 197.46 195.873 199.69 200.346 200.69 z M 221.395 211.597 C 222.80800000000002 207.42600000000002 217.83700000000002 212.14700000000002 221.395 211.597 z M 27.45 86.25 C 28.032999999999998 82.21 23.083 87.054 27.45 86.25 z M 8.927 73.84 C 7.933 68.138 8.07 58.126000000000005 17.585 61.507000000000005 C 4.885000000000002 64.031 26.380000000000003 77.297 23.666 66.822 C 29.008 67.08500000000001 34.116 63.665000000000006 31.310000000000002 68.849 C 41.838 67.69200000000001 49.13 58.56400000000001 59.297 59.846000000000004 C 67.215 58.794000000000004 75.87299999999999 58.002 84.407 54.81100000000001 C 91.423 54.30700000000001 98.17699999999999 46.754000000000005 94.334 42.275000000000006 C 84.767 41.465 74.748 42.66100000000001 64.17500000000001 44.767 C 52.45800000000001 47.199000000000005 41.81300000000002 51.828 29.98900000000001 53.81700000000001 C 18.46000000000001 55.367000000000004 32.30400000000001 58.080000000000005 29.001000000000012 58.68800000000001 C 22.991000000000014 60.77400000000001 36.17500000000001 62.18000000000001 28.223000000000013 64.38300000000001 C 23.313000000000013 63.44900000000001 18.199000000000012 61.76200000000001 20.298000000000012 56.58300000000001 C 9.26 58.021 -0.444 62.598 8.28 73.832 L 8.927999999999999 73.838 z M 35.535 60.290000000000006 C 38.117999999999995 50.757000000000005 49.397 68.138 39.772 61.559000000000005 C 38.626999999999995 60.69500000000001 36.73 59.995000000000005 35.535 60.290000000000006 z M 36.037 55.666000000000004 C 39.772 52.888000000000005 38.019 57.230000000000004 36.037 55.666000000000004 z M 40.778 55.746 C 41.12 51.358000000000004 51.641 58.067 42.512 57.322 L 40.778 55.745000000000005 z M 47.265 53.137 C 49.639 50.363 47.953 55.595 47.265 53.137 z M 48.927 52.026 C 52.876 47.285000000000004 71.27 48.997 57.806 51.56 C 54.196 48.84 51.431 53.162 48.927 52.026 z M 72.937 48.324000000000005 C 72.343 35.36900000000001 84.871 52.92100000000001 72.937 48.324000000000005 z M 79.752 48.284000000000006 C 82.24199999999999 41.75900000000001 89.422 45.663000000000004 80.90899999999999 46.970000000000006 C 81.091 47.67000000000001 80.654 50.345000000000006 79.752 48.284000000000006 z M 24.765 82.902 C 32.205 78.344 16.865000000000002 78.947 24.765 82.902 z M 30.27 84.426 C 32.88 81.654 24.594 83.301 30.27 84.426 z M 14.054 72.924 C 18.304000000000002 69.65400000000001 9.019 71.682 14.054 72.924 z M 233.818 210.407 C 233.942 206.614 230.568 212.113 233.818 210.407 z M 211.48700000000002 195.16400000000002 C 212.121 190.804 208.61700000000002 195.544 211.48700000000002 195.16400000000002 z M 239.95800000000003 211.87900000000002 C 245.90300000000002 211.89900000000003 257.97200000000004 210.02700000000002 245.03800000000004 210.03400000000002 C 243.00500000000005 210.34900000000002 233.21000000000004 210.28400000000002 239.95800000000003 211.87900000000002 z M 35.11 81.75 C 39.923 81.423 42.635999999999996 76.446 34.174 76.728 C 21.064 75.375 45.741 81.22099999999999 32.494 79.547 C 30.716 80.724 35.004 82.077 35.11 81.75 z M 39.347 83.896 C 38.843 80.809 37.855000000000004 85.536 39.347 83.896 z M 44.375 70.49 C 46.461 67.89999999999999 41.485 69.797 44.375 70.49 z M 28.367 43.74 C 36.96 40.824000000000005 48.704 37.541000000000004 52.759 45.18 C 48.632 40.217 51.092 35.325 54.989 42.59 C 60.501 49.934000000000005 63.259 39.249 59.675999999999995 36.783 C 63.763999999999996 41.857 68.40599999999999 44.258 62.40899999999999 37.105000000000004 C 68.92899999999999 29.264000000000003 49.36399999999999 38.13100000000001 44.91799999999999 38.039 C 42.779999999999994 38.999 22.828999999999994 43.126000000000005 28.36799999999999 43.74 z M 33.402 34.103 C 38.301 30.409000000000002 50.345 36.306000000000004 42.616 30.427 C 41.858 29.761 25.694 34.887 33.402 34.103 z M 51.261 34.841 C 56.989000000000004 34.985 48.790000000000006 27.138 55.616 30.695 C 54.498 27.034 47.665 26.347 44.324 24.883 C 42.434 28.230999999999998 48.167 34.887 51.260999999999996 34.841 z M 36.534 18.63 C 38.516 15.943 33.056 19.997 36.534 18.63 z M 43.833999999999996 20.375 C 53.071999999999996 19.153 41.477999999999994 16.4 41.967999999999996 20.278 L 43.833 20.375 z M 30.204 9.717 C 23.697000000000003 1.2230000000000008 42.439 11.143 35.827 2.2490000000000006 C 30.262999999999998 -2.1769999999999996 24.921 7.239000000000001 30.203999999999997 9.717 z M 113.674 54.674 C 116.658 49.388999999999996 101.36200000000001 47.546 111.667 52.802 C 112.615 53.117 112.401 55.039 113.674 54.674 z M 53.108 251.495 C 52.448 254.101 52.038999999999994 258.474 51.885999999999996 264.612 C 51.885999999999996 265.81800000000004 51.342999999999996 266.422 50.254 266.422 C 49.165 266.422 48.407 265.89500000000004 47.977999999999994 264.846 C 46.812 262.008 45.70799999999999 260.029 44.653999999999996 258.899 C 43.412 257.579 41.76 256.781 39.699 256.509 C 37.483999999999995 256.159 31.965999999999998 255.984 23.144 255.984 C 21.124 255.984 19.801 256.199 19.180999999999997 256.628 C 18.791999999999998 256.89799999999997 18.598 257.48199999999997 18.598 258.377 L 18.598 284.786 C 18.598 285.68 19.160999999999998 286.106 20.285999999999998 286.069 C 23.746999999999996 286.029 28.759999999999998 285.793 35.32599999999999 285.369 C 36.60999999999999 285.211 37.47599999999999 284.79400000000004 37.922 284.11300000000006 C 38.372 283.43300000000005 38.809 281.6770000000001 39.233999999999995 278.8380000000001 C 39.504 277.2830000000001 40.419999999999995 276.68000000000006 41.974 277.0320000000001 C 43.294 277.3040000000001 43.861999999999995 277.9070000000001 43.666999999999994 278.8380000000001 C 42.57699999999999 284.1260000000001 42.224999999999994 291.00500000000005 42.614 299.47800000000007 C 42.654999999999994 300.48600000000005 42.013999999999996 301.03200000000004 40.690999999999995 301.11000000000007 C 39.60099999999999 301.2270000000001 38.92099999999999 300.6430000000001 38.650999999999996 299.36000000000007 C 37.642999999999994 294.50300000000004 35.763999999999996 291.9070000000001 33.026999999999994 291.57500000000005 C 30.286999999999992 291.24700000000007 25.823999999999995 291.081 19.64699999999999 291.081 C 18.946999999999992 291.081 18.597999999999992 291.332 18.597999999999992 291.838 L 18.597999999999992 318.07300000000004 C 18.597999999999992 320.01700000000005 19.31499999999999 321.34000000000003 20.751999999999992 322.03700000000003 C 21.88199999999999 322.62000000000006 24.30999999999999 323.146 28.03899999999999 323.612 C 29.94599999999999 323.80600000000004 30.77899999999999 324.644 30.548999999999992 326.118 C 30.313999999999993 327.401 28.60599999999999 327.907 25.415999999999993 327.635 C 16.205999999999992 326.895 8.605999999999995 326.935 2.622999999999994 327.754 C 0.949999999999994 327.98400000000004 0.11699999999999422 327.30400000000003 0.11699999999999422 325.713 C 0.11699999999999422 324.70000000000005 0.9499999999999942 324.118 2.622999999999994 323.963 C 6.431999999999994 323.53400000000005 8.334999999999994 320.19100000000003 8.334999999999994 313.93600000000004 L 8.334999999999994 264.028 C 8.334999999999994 261.466 7.876999999999994 259.494 6.965999999999994 258.113 C 6.050999999999994 256.733 4.349999999999994 255.478 1.8659999999999943 254.352 C 0.3099999999999943 253.65200000000002 -0.27200000000000557 252.701 0.11599999999999433 251.495 C 0.30999999999999434 250.758 0.6219999999999943 250.348 1.0469999999999944 250.272 C 1.4359999999999944 250.154 2.4679999999999946 250.232 4.135999999999994 250.506 C 6.585999999999994 250.894 12.358999999999995 251.089 21.45199999999999 251.089 C 32.18099999999999 251.089 41.44799999999999 250.85399999999998 49.261999999999986 250.389 C 51.86499999999999 250.23100000000002 53.16899999999998 250.446 53.16899999999998 251.029 C 53.16899999999998 251.18699999999998 53.14899999999998 251.34 53.10799999999998 251.495 z M 90.915 325.502 C 90.915 327.057 90.04 327.737 88.292 327.54200000000003 C 82.932 327.03600000000006 76.284 327.112 68.356 327.773 C 66.761 327.93100000000004 65.782 327.89000000000004 65.41 327.66 C 65.03999999999999 327.425 64.85799999999999 326.785 64.85799999999999 325.732 C 64.85799999999999 324.802 65.91499999999999 324.016 68.03299999999999 323.372 C 70.15399999999998 322.733 71.21 320.81800000000004 71.21 317.632 L 71.21 264.87 C 71.21 261.72 70.753 259.408 69.842 257.93 C 68.92699999999999 256.45300000000003 67.324 255.30700000000002 65.032 254.493 C 63.82599999999999 254.063 63.221999999999994 253.46099999999998 63.221999999999994 252.683 C 63.221999999999994 251.517 64.097 250.643 65.84599999999999 250.06 C 68.49 249.205 71.231 247.886 74.06899999999999 246.096 C 76.40099999999998 244.696 77.87899999999999 243.999 78.49799999999999 243.999 C 79.93499999999999 243.999 80.657 244.987 80.657 246.97 C 80.657 246.817 80.579 248.76 80.42099999999999 252.8 C 80.30799999999999 256.647 80.26799999999999 260.43600000000004 80.30799999999999 264.17 L 80.538 316.23 C 80.538 318.60200000000003 81.122 320.32300000000004 82.288 321.392 C 83.454 322.46 85.458 323.169 88.292 323.518 C 90.04 323.71099999999996 90.915 324.37199999999996 90.915 325.501 z M 143.644 322.064 C 143.644 322.882 142.15800000000002 324.11400000000003 139.186 325.764 C 136.211 327.41700000000003 133.83 328.243 132.044 328.243 C 130.526 328.243 129.187 327.506 128.02100000000002 326.028 C 126.85500000000002 324.55100000000004 126.03600000000002 323.814 125.57100000000001 323.814 C 125.22200000000001 323.814 123.37600000000002 324.61100000000005 120.031 326.202 C 116.69200000000001 327.797 113.328 328.59499999999997 109.947 328.59499999999997 C 106.761 328.59499999999997 104.09700000000001 327.65999999999997 101.96000000000001 325.79799999999994 C 99.62800000000001 323.73599999999993 98.462 320.93799999999993 98.462 317.3999999999999 C 98.462 310.67599999999993 106.158 305.85799999999995 121.55000000000001 302.9429999999999 C 124.19000000000001 302.43699999999995 125.534 301.36799999999994 125.57000000000001 299.73599999999993 L 125.68900000000001 296.0039999999999 C 125.923 289.6309999999999 123.105 286.4449999999999 117.23500000000001 286.4449999999999 C 115.56300000000002 286.4449999999999 113.98000000000002 287.9389999999999 112.48100000000001 290.93099999999987 C 110.98800000000001 293.92699999999985 108.83800000000001 295.5379999999999 106.04 295.77299999999985 C 102.85400000000001 296.08099999999985 101.259 294.7409999999999 101.259 291.74899999999985 C 101.259 289.88199999999983 103.631 287.70899999999983 108.372 285.2189999999999 C 113.348 282.6159999999999 118.13 281.3119999999999 122.716 281.3119999999999 C 130.60399999999998 281.3119999999999 134.51 285.0649999999999 134.433 292.5659999999999 L 134.19799999999998 316.5829999999999 C 134.16199999999998 319.1099999999999 135.23099999999997 320.3719999999999 137.40499999999997 320.3719999999999 C 137.83399999999997 320.3719999999999 138.65099999999998 320.2759999999999 139.85399999999998 320.0809999999999 C 141.06099999999998 319.8869999999999 141.761 319.78899999999993 141.956 319.78899999999993 C 143.081 319.78899999999993 143.64399999999998 320.54999999999995 143.64399999999998 322.0639999999999 z M 125.68900000000001 308.774 C 125.72900000000001 307.801 125.50200000000001 307.157 125.016 306.85 C 124.53 306.53900000000004 123.766 306.47700000000003 122.71600000000001 306.672 C 113.34800000000001 308.34400000000005 108.66400000000002 311.396 108.66400000000002 315.826 C 108.66400000000002 320.29600000000005 111.09300000000002 322.53000000000003 115.95100000000002 322.53000000000003 C 117.89500000000002 322.53000000000003 119.89900000000002 322.16200000000003 121.95500000000003 321.425 C 124.36800000000002 320.567 125.57100000000003 319.539 125.57100000000003 318.332 L 125.68900000000002 308.77299999999997 z M 186.988 315.357 C 186.988 319.47700000000003 185.4 322.754 182.235 325.182 C 179.068 327.612 174.745 328.826 169.263 328.826 C 165.61100000000002 328.826 161.955 328.43800000000005 158.303 327.66 C 155.153 326.96000000000004 153.327 326.32000000000005 152.822 325.737 C 152.51 325.19 152.356 322.531 152.356 317.749 C 152.356 315.689 152.822 314.619 153.756 314.543 C 154.688 314.425 155.486 314.932 156.146 316.057 C 159.05999999999997 321.15000000000003 163.76399999999998 323.697 170.255 323.697 C 175.732 323.697 178.47299999999998 321.79 178.47299999999998 317.98 C 178.47299999999998 316.312 177.85299999999998 314.911 176.60699999999997 313.785 C 175.24599999999998 312.502 172.60699999999997 311.00500000000005 168.67999999999998 309.295 C 163.004 306.77000000000004 159.21399999999997 304.555 157.31099999999998 302.648 C 155.24999999999997 300.62800000000004 154.22099999999998 297.908 154.22099999999998 294.48600000000005 C 154.22099999999998 290.28700000000003 155.83399999999997 287.02500000000003 159.05999999999997 284.69300000000004 C 162.05199999999996 282.43700000000007 166.05599999999998 281.31200000000007 171.06799999999998 281.31200000000007 C 174.218 281.31200000000007 177.093 281.56200000000007 179.7 282.0690000000001 C 182.498 282.57500000000005 183.95499999999998 283.19500000000005 184.072 283.93500000000006 C 184.38 286.10900000000004 185.024 289.25900000000007 185.996 293.3810000000001 C 186.113 293.8830000000001 185.566 294.2920000000001 184.364 294.60300000000007 C 183.08 294.87500000000006 182.226 294.6600000000001 181.797 293.9630000000001 C 178.728 288.94700000000006 174.84199999999998 286.4410000000001 170.137 286.4410000000001 C 164.813 286.4410000000001 162.15 288.15100000000007 162.15 291.5710000000001 C 162.15 293.4770000000001 162.87 294.9910000000001 164.30700000000002 296.1170000000001 C 165.591 297.08900000000006 168.602 298.6070000000001 173.34400000000002 300.66800000000006 C 178.31900000000002 302.80500000000006 181.70000000000002 304.72900000000004 183.49 306.43800000000005 C 185.822 308.65200000000004 186.988 311.62800000000004 186.988 315.357 z M 255.575 325.56 C 255.575 326.92 254.66 327.64 252.83399999999997 327.717 C 250.11299999999997 327.757 246.55399999999997 327.95099999999996 242.16599999999997 328.3 C 239.98799999999997 328.729 238.43299999999996 328.458 237.50199999999998 327.486 C 231.35999999999999 320.87899999999996 226.14999999999998 313.96 221.87399999999997 306.729 C 221.52599999999995 306.109 221.07999999999996 305.798 220.53399999999996 305.798 C 219.87399999999997 305.798 218.72899999999996 306.38100000000003 217.09699999999995 307.548 C 215.26699999999994 308.556 214.35599999999994 309.996 214.35599999999994 311.858 C 214.35599999999994 313.182 214.39199999999994 315.085 214.47299999999993 317.576 C 214.55099999999993 320.06100000000004 215.16999999999993 321.692 216.33599999999993 322.47 C 217.15299999999993 323.01700000000005 219.04099999999994 323.442 221.99099999999993 323.754 C 223.81799999999993 323.988 224.73299999999992 324.668 224.73299999999992 325.79400000000004 C 224.73299999999992 326.689 224.58699999999993 327.244 224.29499999999993 327.45400000000006 C 224.00499999999994 327.66800000000006 223.23499999999993 327.71700000000004 221.99099999999993 327.6000000000001 C 218.10499999999993 327.25200000000007 211.53799999999993 327.4460000000001 202.28799999999993 328.1830000000001 C 199.95599999999993 328.3770000000001 198.69199999999992 328.0850000000001 198.49799999999993 327.3080000000001 C 198.42099999999994 327.0380000000001 198.37999999999994 326.6480000000001 198.37999999999994 326.1420000000001 C 198.37999999999994 324.9400000000001 199.56699999999995 324.0240000000001 201.93999999999994 323.4060000000001 C 204.07699999999994 322.8580000000001 205.14499999999995 320.35200000000015 205.14499999999995 315.8830000000001 L 205.14499999999995 264.9280000000001 C 205.14499999999995 261.74200000000013 204.83499999999995 259.5270000000001 204.20999999999995 258.2840000000001 C 203.35599999999994 256.6890000000001 201.56599999999995 255.4450000000001 198.84599999999995 254.5510000000001 C 197.56599999999995 254.1260000000001 196.92299999999994 253.5230000000001 196.92299999999994 252.7450000000001 C 196.92299999999994 251.6150000000001 197.83799999999994 250.7410000000001 199.66299999999995 250.1220000000001 C 202.60095278732197 249.13931276102957 205.40207076925532 247.78714160468363 207.99899999999997 246.0980000000001 C 210.13799999999998 244.7010000000001 211.46099999999996 244.00000000000009 211.96299999999997 244.00000000000009 C 213.55899999999997 244.00000000000009 214.35599999999997 245.0080000000001 214.35599999999997 247.03300000000007 C 214.35599999999997 246.75800000000007 214.33599999999996 248.68500000000006 214.29499999999996 252.80300000000008 C 214.25306253257358 256.6121837596284 214.23439551759523 260.42158817341436 214.23899999999992 264.2310000000002 L 214.35599999999994 300.72500000000014 C 214.35599999999994 301.73700000000014 214.62699999999992 302.23900000000015 215.16999999999993 302.23900000000015 C 215.75299999999993 302.23900000000015 216.64799999999994 301.73700000000014 217.85399999999993 300.72500000000014 C 221.07999999999993 298.19800000000015 225.04399999999993 294.89500000000015 229.74499999999992 290.81400000000014 C 230.67999999999992 289.84300000000013 231.14499999999992 289.0650000000001 231.14499999999992 288.48200000000014 C 231.14499999999992 287.43400000000014 229.5709999999999 286.6920000000001 226.42499999999993 286.26800000000014 C 225.0649999999999 286.10900000000015 224.42099999999994 285.3530000000001 224.49699999999993 283.99200000000013 C 224.61499999999992 282.6320000000001 225.29599999999994 282.04900000000015 226.53799999999993 282.2430000000001 C 229.33999999999992 282.6330000000001 233.42099999999994 282.8470000000001 238.78099999999992 282.8870000000001 C 242.51399999999992 282.9230000000001 246.2259999999999 282.94400000000013 249.91899999999993 282.94400000000013 C 251.12099999999992 282.98400000000015 251.72499999999994 283.70100000000014 251.72499999999994 285.10200000000015 C 251.72499999999994 286.42200000000014 250.77299999999994 287.14200000000017 248.86999999999995 287.26000000000016 C 245.87399999999994 287.37300000000016 243.05599999999995 288.05300000000017 240.41699999999994 289.3000000000002 C 236.72399999999993 290.9680000000002 232.77699999999996 293.9030000000002 228.57899999999995 298.1020000000002 C 228.27099999999996 298.3360000000002 228.11299999999994 298.6270000000002 228.11299999999994 298.9760000000002 C 228.11299999999994 299.51900000000023 228.77299999999994 300.8230000000002 230.09699999999995 302.8830000000002 C 234.95499999999996 310.2680000000002 239.54199999999994 315.8430000000002 243.85399999999996 319.61500000000024 C 246.61499999999995 321.98500000000024 249.19799999999995 323.17000000000024 251.60699999999997 323.17000000000024 C 253.39699999999996 323.17000000000024 254.50499999999997 323.2960000000002 254.92999999999998 323.55000000000024 C 255.35999999999999 323.8030000000002 255.575 324.4740000000002 255.575 325.56000000000023 z" stroke-linecap="round" />
</g>
</svg>